# xmcd CD Database Entry
#
# Track frame offsets:
# 150
# 14775
# 28050
# 39076
# 54153
# 71926
# 88579
# 96380
# 126682
# 143484
# 155333
# 173710
# 195235
# 253659
# 270082
# 278857
# 296556
# 306532
# 325132
# 337433
#
# Disc length: 4664 seconds
#
# Revision: 4
# Processed by: cddbd v1.4b41PL1 Copyright (c) Steve Scherf et al.
# Submitted via: tcd 2.0b
#
DISCID=2c123614
DTITLE=Kryl - The Best
DYEAR=1900
DGENRE=
TTITLE0=Bila hora
TTITLE1=Blativa stran
TTITLE2=Dvacet
TTITLE3=Hlas
TTITLE4=Ignac
TTITLE5=Irena
TTITLE6=Jerabiny
TTITLE7=Kysely snih
TTITLE8=Lilie
TTITLE9=Pisen o zradle
TTITLE10=Plavacek
TTITLE11=Pohyby
TTITLE12=Podivna ruleta
TTITLE13=Ptak Noh
TTITLE14=Pusky a dela
TTITLE15=Tisice rok miru
TTITLE16=Varhany v Olive
TTITLE17=Vune
TTITLE18=Znameni doby
TTITLE19=Z ohlasu pisni ruskych
EXTD=
EXTT0=
EXTT1=
EXTT2=
EXTT3=
EXTT4=
EXTT5=
EXTT6=
EXTT7=
EXTT8=
EXTT9=
EXTT10=
EXTT11=
EXTT12=
EXTT13=
EXTT14=
EXTT15=
EXTT16=
EXTT17=
EXTT18=
EXTT19=
PLAYORDER=
